<svg height="512pt" viewBox="0 -87 512.00069 512" width="512pt" xmlns="http://www.w3.org/2000/svg"><path style="fill:#e69522;" d="m504.347656 206.839844-25.488281-14.480469c-.003906 0-.003906-.003906-.003906-.003906l-72.839844-41.382813c-4.628906-2.632812-10.304687-2.632812-14.933594 0l-50.25 28.550782v-58.039063l5.03125 2.859375c2.359375 1.339844 4.921875 1.976562 7.453125 1.976562 5.261719 0 10.375-2.75 13.160156-7.652343 4.125-7.261719 1.582032-16.488281-5.675781-20.613281l-169.105469-96.082032c-4.632812-2.628906-10.308593-2.628906-14.9375 0l-169.105468 96.082032c-7.261719 4.125-9.800782 13.355468-5.675782 20.613281 4.125 7.257812 13.355469 9.800781 20.613282 5.675781l5.03125-2.859375v200.722656c0 8.347657 6.769531 15.117188 15.117187 15.117188h428.648438c8.347656 0 15.117187-6.769531 15.117187-15.117188v-90.726562l2.90625 1.652343c2.359375 1.339844 4.925782 1.976563 7.457032 1.972657 5.257812 0 10.371093-2.75 13.15625-7.648438 4.125-7.261719 1.585937-16.488281-5.675782-20.617187zm-446.488281-102.535156 126.367187-71.800782 126.367188 71.800782v101.492187.011719 101.28125h-61.40625v-112.742188c0-8.347656-6.769531-15.117187-15.121094-15.117187h-99.683594c-8.347656 0-15.117187 6.769531-15.117187 15.117187v112.742188h-61.410156v-202.785156zm91.644531 202.785156v-97.621094h69.445313v97.621094zm240.410156 0v-35.273438h17.273438v35.273438zm66.355469 0h-18.847656v-50.390625c0-8.347657-6.769531-15.117188-15.117187-15.117188h-47.507813c-8.347656 0-15.117187 6.769531-15.117187 15.117188v50.390625h-18.847657v-92.789063l57.71875-32.796875 57.71875 32.796875zm0 0"/></svg>