<svg id="Layer_1" height="512" viewBox="0 0 128 128" width="512" xmlns="http://www.w3.org/2000/svg" data-name="Layer 1"><path d="m87.88 16.62v83.85a11.455 11.455 0 0 0 -1.6 1.39 13.415 13.415 0 0 0 -5.86-6.44 16.188 16.188 0 0 0 -3.5-1.43 17.1 17.1 0 0 0 -5.54-.61 16.178 16.178 0 0 0 -3.5.55 13.627 13.627 0 0 0 -3.88 1.74 13.627 13.627 0 0 0 -3.88-1.74 16.178 16.178 0 0 0 -3.5-.55 17.1 17.1 0 0 0 -5.54.61 16.188 16.188 0 0 0 -3.5 1.43 13.415 13.415 0 0 0 -5.86 6.44 11.455 11.455 0 0 0 -1.6-1.39v-83.85z" fill="#76defe"/><path d="m121.5 121.5h-115c0-8.25 6.08-19.33 17.12-14.51-.34-7.05 9.69-11.4 16.5-6.52a11.455 11.455 0 0 1 1.6 1.39c3.78-8.79 15.59-10.62 22.28-6.19 6.69-4.43 18.5-2.6 22.28 6.19a11.455 11.455 0 0 1 1.6-1.39c6.81-4.88 16.84-.53 16.5 6.52 11.04-4.82 17.12 6.26 17.12 14.51z" fill="#67c1dd"/><g fill="#232629"><path d="m40.115 60.25a1.75 1.75 0 0 0 1.75-1.75v-7.5a1.75 1.75 0 0 0 -3.5 0v7.5a1.75 1.75 0 0 0 1.75 1.75z"/><path d="m115.79 105.94a11.7 11.7 0 0 0 -9.9-1.35 10.272 10.272 0 0 0 -6.2-6.86 13.028 13.028 0 0 0 -12.89 1.36 15.406 15.406 0 0 0 -6.38-5.64v-75.075h5.715v71.188a1.75 1.75 0 0 0 3.5 0v-75.063a6.257 6.257 0 0 1 6.25-6.25h25.615a1.75 1.75 0 0 0 0-3.5h-25.615a9.761 9.761 0 0 0 -9.75 9.75v.375h-44.27v-.375a9.761 9.761 0 0 0 -9.75-9.75h-25.615a1.75 1.75 0 0 0 0 3.5h25.615a6.257 6.257 0 0 1 6.25 6.25v25.875a1.75 1.75 0 0 0 3.5 0v-22h5.715v75.075a15.411 15.411 0 0 0 -5.71 4.68v-29.25a1.75 1.75 0 1 0 -3.5 0v28.66a13.062 13.062 0 0 0 -10.06.19 10.272 10.272 0 0 0 -6.2 6.86 11.7 11.7 0 0 0 -9.9 1.35c-5.15 3.37-7.46 10.24-7.46 15.56a1.75 1.75 0 0 0 3.5 0c0-4.23 1.84-9.99 5.87-12.63 2.51-1.64 5.47-1.73 8.8-.27a1.754 1.754 0 0 0 2.45-1.69c-.14-2.96 2.14-5.03 4.32-5.97a9.765 9.765 0 0 1 8.68.47 9.892 9.892 0 0 1 2.09 1.66 1.779 1.779 0 0 0 1.41.53.88.88 0 0 0 .17-.02 1.76 1.76 0 0 0 1.29-1.03 11.568 11.568 0 0 1 4.25-5.07 13.29 13.29 0 0 1 3.5-1.66 2.244 2.244 0 0 1 .24-.08 15.5 15.5 0 0 1 5.3-.62 13.533 13.533 0 0 1 3.5.64 11.6 11.6 0 0 1 2.91 1.37 1.755 1.755 0 0 0 1.94 0 11.6 11.6 0 0 1 2.91-1.37 13.533 13.533 0 0 1 3.5-.64 15.5 15.5 0 0 1 5.3.62 2.244 2.244 0 0 1 .24.08 13.29 13.29 0 0 1 3.5 1.66 11.568 11.568 0 0 1 4.25 5.07 1.749 1.749 0 0 0 2.87.52 9.588 9.588 0 0 1 10.77-2.13c2.18.94 4.46 3.01 4.32 5.97a1.754 1.754 0 0 0 2.45 1.69c3.33-1.46 6.29-1.37 8.8.27 4.03 2.64 5.87 8.4 5.87 12.63a1.75 1.75 0 0 0 3.5 0c0-5.32-2.31-12.19-7.46-15.56zm-64.71-13.77v-73.795h5.54v73.245a18.976 18.976 0 0 0 -5.54.55zm20.3-.55v-52.12a1.75 1.75 0 1 0 -3.5 0v52.63a15.782 15.782 0 0 0 -3.88 1.5 15.782 15.782 0 0 0 -3.88-1.5v-73.755h7.755v8.625a1.75 1.75 0 0 0 3.5 0v-8.625h5.545v73.795a18.976 18.976 0 0 0 -5.54-.55z"/></g></svg>