<?xml version="1.0" encoding="iso-8859-1"?>
<!-- Generator: Adobe Illustrator 19.0.0, SVG Export Plug-In . SVG Version: 6.00 Build 0)  -->
<svg version="1.1" id="Capa_1" xmlns="http://www.w3.org/2000/svg" xmlns:xlink="http://www.w3.org/1999/xlink" x="0px" y="0px"
	 viewBox="0 0 512 512" style="enable-background:new 0 0 512 512;" xml:space="preserve">
<g>
	<g>
		<path style="fill:#44A9B9;" d="M45,61C20.186,61,0,81.186,0,106c0,24.814,20.186,45,45,45s45-20.186,45-45C90,81.186,69.814,61,45,61z"/>
	</g>
</g>
<g>
	<g>
		<path style="fill:#44A9B9;" d="M264.961,404.359l-60-90C199.38,305.995,190.049,301,180,301H90v-66.563l97.295-24.331
			C200.669,206.767,210,194.799,210,181v-60c0-16.538-13.462-30-30-30c-16.538,0-30,13.462-30,30v36.563l-97.295,24.331
			C39.331,185.233,30,197.201,30,211v120c0,16.538,13.462,30,30,30h103.945l51.094,76.641c9.19,13.771,27.83,17.514,41.602,8.32
			C270.379,436.811,274.175,418.195,264.961,404.359z"/>
	</g>
</g>
<g>
	<g>
		<path style="fill:#44A9B9;" d="M497,0H135c-6.064,0-11.543,3.647-13.857,9.258c-2.329,5.61-1.04,12.056,3.252,16.348l37.493,38.493
			C167.639,62.262,173.646,61,180,61c27.924,0,51.242,19.248,57.907,45.117l7.987,2.664l92.397-46.199
			c7.427-3.662,16.406-0.703,20.127,6.709c3.706,7.412,0.703,16.421-6.709,20.127l-77.573,38.785l23.558,117.755L390,215.189V166
			c0-8.291,6.709-15,15-15c8.291,0,15,6.709,15,15v60c0,6.46-4.131,12.188-10.254,14.224L308.87,273.845L346.972,331H435
			c8.291,0,15,6.709,15,15c0,8.291-6.709,15-15,15h-70.811l26.587,79.746c1.055,3.164,3.135,5.889,5.903,7.734l92,61
			c2.505,1.67,5.405,2.52,8.32,2.52c2.432,0,4.863-0.586,7.075-1.772C508.953,507.62,512,502.537,512,497V15
			C512,6.709,505.291,0,497,0z"/>
	</g>
</g>
<g>
	<g>
		<path style="fill:#44A9B9;" d="M144.976,404.374L136.089,391H63.946L90,430.082V482c0,16.538,13.462,30,30,30s30-13.462,30-30v-61
			C150,415.038,148.257,409.281,144.976,404.374z"/>
	</g>
</g>
<g>
</g>
<g>
</g>
<g>
</g>
<g>
</g>
<g>
</g>
<g>
</g>
<g>
</g>
<g>
</g>
<g>
</g>
<g>
</g>
<g>
</g>
<g>
</g>
<g>
</g>
<g>
</g>
<g>
</g>
</svg>
