<svg width="850" height="850" xmlns="http://www.w3.org/2000/svg">

 <g>
  <title>background</title>
  <rect fill="none" id="canvas_background" height="852" width="852" y="-1" x="-1"/>
 </g>
 <g>
  <title>Layer 1</title>
  <ellipse ry="410" rx="410" id="svg_29" cy="425.000002" cx="425.000004" stroke-width="1.5" stroke="#449a9b" fill="#44a9b9"/>
  <g id="svg_1">
   <g id="svg_2">
    <path id="svg_3" fill="#ffffff" d="m214.999937,247.999756c-24.814,0 -45,20.186 -45,45c0,24.814 20.186,45 45,45s45,-20.186 45,-45c0,-24.814 -20.186,-45 -45,-45z"/>
   </g>
  </g>
  <g id="svg_4">
   <g id="svg_5">
    <path id="svg_6" fill="#ffffff" d="m434.960937,591.358756l-60,-90c-5.581,-8.364 -14.912,-13.359 -24.961,-13.359l-90,0l0,-66.563l97.295,-24.331c13.374,-3.339 22.705,-15.307 22.705,-29.106l0,-60c0,-16.538 -13.462,-30 -30,-30c-16.538,0 -30,13.462 -30,30l0,36.563l-97.295,24.331c-13.374,3.339 -22.705,15.307 -22.705,29.106l0,120c0,16.538 13.462,30 30,30l103.945,0l51.094,76.641c9.19,13.771 27.83,17.514 41.602,8.32c13.738,-9.15 17.534,-27.766 8.32,-41.602z"/>
   </g>
  </g>
  <g id="svg_7">
   <g id="svg_8">
    <path id="svg_9" fill="#ffffff" d="m666.999937,186.999756l-362,0c-6.064,0 -11.543,3.647 -13.857,9.258c-2.329,5.61 -1.04,12.056 3.252,16.348l37.493,38.493c5.751,-1.837 11.758,-3.099 18.112,-3.099c27.924,0 51.242,19.248 57.907,45.117l7.987,2.664l92.397,-46.199c7.427,-3.662 16.406,-0.703 20.127,6.709c3.706,7.412 0.703,16.421 -6.709,20.127l-77.573,38.785l23.558,117.755l92.306,-30.769l0,-49.189c0,-8.291 6.709,-15 15,-15c8.291,0 15,6.709 15,15l0,60c0,6.46 -4.131,12.188 -10.254,14.224l-100.876,33.621l38.102,57.155l88.028,0c8.291,0 15,6.709 15,15c0,8.291 -6.709,15 -15,15l-70.811,0l26.587,79.746c1.055,3.164 3.135,5.889 5.903,7.734l92,61c2.505,1.67 5.405,2.52 8.32,2.52c2.432,0 4.863,-0.586 7.075,-1.772c4.879,-2.608 7.926,-7.691 7.926,-13.228l0,-482c0,-8.291 -6.709,-15 -15,-15z"/>
   </g>
  </g>
  <g id="svg_10">
   <g id="svg_11">
    <path id="svg_12" fill="#ffffff" d="m314.975937,591.373756l-8.887,-13.374l-72.143,0l26.054,39.082l0,51.918c0,16.538 13.462,30 30,30s30,-13.462 30,-30l0,-61c0,-5.962 -1.743,-11.719 -5.024,-16.626z"/>
   </g>
  </g>
  <g id="svg_13"/>
  <g id="svg_14"/>
  <g id="svg_15"/>
  <g id="svg_16"/>
  <g id="svg_17"/>
  <g id="svg_18"/>
  <g id="svg_19"/>
  <g id="svg_20"/>
  <g id="svg_21"/>
  <g id="svg_22"/>
  <g id="svg_23"/>
  <g id="svg_24"/>
  <g id="svg_25"/>
  <g id="svg_26"/>
  <g id="svg_27"/>
 </g>
</svg>