<svg id="Layer_1" enable-background="new 0 0 512 512" height="512" viewBox="0 0 512 512" width="512" xmlns="http://www.w3.org/2000/svg">
<g><g clip-rule="evenodd" fill-rule="evenodd"><path d="m195.998 416.001v-70h-175.998c-5.5-.001-10 4.499-10 9.999v60.001z" fill="#EE7656"/>
<path d="m195.998 346h120.004v70h-120.004z" fill="#EE7656"/>
<path d="m316.002 346v70h185.998v-60c0-5.5-4.5-10-10-10z" fill="#EE7656"/>
<path d="m316.002 346h175.998l-30.001-60c-2.459-4.918-4.499-10-10-10h-391.999c-5.5 0-7.54 5.081-10 10l-30 60h175.998z" fill="#ffffff"/>
<path d="m60 276h392l-30.001-60.001c-2.459-4.917-4.5-10-10-10h-311.998c-5.5 0-7.54 5.081-10 10z" fill="#EE7656"/>
<path d="m100.001 206h311.998l-30.001-60.001c-2.458-4.916-4.499-10-10-10h-231.997c-5.5 0-7.54 5.081-10 10z" fill="#fff"/>
<path d="m140.001 135.999h231.997c10.999 0 20-9 20-20 0-10.999-9-20-20-20h-231.997c-11 0-20 8.999-20 20 0 11 9.001 20 20 20z" fill="#fff"/>
</g><g><path style="fill:#EE7656;" d="m498.786 337.211-27.843-55.684-.538-1.087c-1.904-3.868-5.077-10.275-11.536-13.064l-27.926-55.849-.537-1.085c-1.904-3.869-5.079-10.277-11.538-13.066l-27.926-55.849-.536-1.084c-.088-.178-.185-.373-.278-.562 7.207-5.485 11.87-14.147 11.87-23.883 0-16.542-13.457-29.999-29.999-29.999h-231.998c-16.542 0-29.999 13.458-29.999 30 0 9.734 4.663 18.397 11.869 23.881-.094.189-.191.384-.279.563l-28.461 56.933c-6.46 2.79-9.635 9.198-11.539 13.067l-28.462 56.932c-6.461 2.789-9.635 9.199-11.539 13.069l-28.378 56.766c-7.692 2.789-13.213 10.147-13.213 18.79v60c0 5.522 4.478 10 10 10h492c5.522 0 10-4.478 10-10v-60c0-8.643-5.521-16.001-13.214-18.789zm-358.785-231.211h231.998c5.514 0 9.999 4.486 9.999 10s-4.485 10-9.999 10h-231.998c-5.514 0-9.999-4.486-9.999-10.001 0-5.514 4.485-9.999 9.999-9.999zm-41.056 114.471.592-1.196c.497-1.009 1.181-2.398 1.718-3.275h109.742c5.522 0 10-4.478 10-10s-4.478-10-10-10h-94.815l22.765-45.529.592-1.195c.498-1.012 1.182-2.398 1.72-3.275h229.484c.538.876 1.222 2.263 1.72 3.274l23.357 46.725h-94.823c-5.522 0-10 4.478-10 10s4.478 10 10 10h109.748c.537.877 1.221 2.267 1.717 3.274l23.359 46.726h-359.64zm-40 70 .592-1.196c.497-1.009 1.181-2.398 1.718-3.275h389.49c.537.877 1.22 2.265 1.716 3.272l23.36 46.728h-439.64zm247.057 65.529v50h-100.004v-50zm-286.004 0h166v50h-165.998zm306.004 50v-50h165.977c.007 0 .014.001.021.001v49.999z"/><path d="m256 216c5.522 0 10-4.478 10-10s-4.478-10-10-10h-.007c-5.522 0-9.996 4.478-9.996 10s4.481 10 10.003 10z"/></g></g></svg>