<?xml version="1.0" encoding="iso-8859-1"?>
<!-- Generator: Adobe Illustrator 19.0.0, SVG Export Plug-In . SVG Version: 6.00 Build 0)  -->
<svg version="1.1" id="Layer_1" xmlns="http://www.w3.org/2000/svg" xmlns:xlink="http://www.w3.org/1999/xlink" x="0px" y="0px"
	 viewBox="0 0 512.001 512.001" style="enable-background:new 0 0 512.001 512.001;" xml:space="preserve">
<g>
	<g>
		<path style="fill:#e69522;" d="M510.184,441.939L373.341,168.015c-6.277-12.562-24.257-12.564-30.534,0l-30.241,60.536L225.758,54.792
			c-6.271-12.556-24.253-12.572-30.532,0C190.065,65.121,7.07,431.424,1.817,441.939c-5.666,11.341,2.606,24.693,15.266,24.693
			c12.55,0,465.846,0,477.833,0C507.571,466.631,515.85,453.284,510.184,441.939z M210.493,100.606l69.32,138.758l-13.164,15.166
			L230.945,213.4c-6.805-7.84-18.98-7.827-25.775,0l-10.253,11.81l-29.625-34.13L210.493,100.606z M44.686,432.5l104.098-208.373
			l33.247,38.302c6.811,7.848,18.981,7.827,25.775,0.001l10.254-11.812l35.704,41.129c6.805,7.841,18.98,7.825,25.775,0
			l16.786-19.337c4.091,8.189,77.137,154.406,79.977,160.09H44.686z M414.452,432.502V432.5
			c-2.207-4.418-80.672-161.485-82.81-165.762l26.431-52.909l109.24,218.672H414.452z"/>
	</g>
</g>
<g>
</g>
<g>
</g>
<g>
</g>
<g>
</g>
<g>
</g>
<g>
</g>
<g>
</g>
<g>
</g>
<g>
</g>
<g>
</g>
<g>
</g>
<g>
</g>
<g>
</g>
<g>
</g>
<g>
</g>
</svg>
