<?xml version="1.0" encoding="UTF-8"?>
<svg xmlns="http://www.w3.org/2000/svg" xmlns:xlink="http://www.w3.org/1999/xlink" width="16pt" height="16pt" viewBox="0 0 16 16" version="1.1">
<g id="surface1">
<path style=" stroke:none;fill-rule:nonzero;fill:rgb(90.196078%,58.431373%,13.333333%);fill-opacity:1;" d="M 13.65625 2.34375 C 12.144531 0.832031 10.136719 0 8 0 C 5.863281 0 3.855469 0.832031 2.34375 2.34375 C 0.832031 3.855469 0 5.863281 0 8 C 0 10.136719 0.832031 12.144531 2.34375 13.65625 C 3.855469 15.167969 5.863281 16 8 16 C 10.136719 16 12.144531 15.167969 13.65625 13.65625 C 15.167969 12.144531 16 10.136719 16 8 C 16 5.863281 15.167969 3.855469 13.65625 2.34375 Z M 12.519531 8.46875 L 8.46875 8.46875 L 8.46875 12.519531 C 8.46875 12.777344 8.257812 12.988281 8 12.988281 C 7.742188 12.988281 7.53125 12.777344 7.53125 12.519531 L 7.53125 8.46875 L 3.480469 8.46875 C 3.222656 8.46875 3.011719 8.257812 3.011719 8 C 3.011719 7.742188 3.222656 7.53125 3.480469 7.53125 L 7.53125 7.53125 L 7.53125 3.480469 C 7.53125 3.222656 7.742188 3.011719 8 3.011719 C 8.257812 3.011719 8.46875 3.222656 8.46875 3.480469 L 8.46875 7.53125 L 12.519531 7.53125 C 12.777344 7.53125 12.988281 7.742188 12.988281 8 C 12.988281 8.257812 12.777344 8.46875 12.519531 8.46875 Z M 12.519531 8.46875 "/>
</g>
</svg>
